<?xml version="1.0" standalone="no"?>
<!DOCTYPE svg PUBLIC "-//W3C//DTD SVG 20010904//EN"
 "http://www.w3.org/TR/2001/REC-SVG-20010904/DTD/svg10.dtd">
<svg version="1.0" xmlns="http://www.w3.org/2000/svg"
 width="512.000000pt" height="512.000000pt" viewBox="0 0 512.000000 512.000000"
 preserveAspectRatio="xMidYMid meet">

<g transform="translate(0.000000,512.000000) scale(0.100000,-0.100000)"
fill="#000000" stroke="none">
<path d="M2001 5103 c-16 -13 -33 -59 -61 -163 -22 -80 -40 -152 -40 -161 0
-34 35 -60 104 -79 38 -11 71 -21 73 -24 6 -6 -7 -69 -17 -87 -8 -12 -23 -10
-100 10 -85 22 -91 22 -115 7 -14 -10 -30 -27 -35 -39 -20 -46 -480 -1786
-480 -1814 0 -41 18 -61 70 -76 25 -7 45 -17 45 -22 0 -6 -11 -53 -24 -106
-24 -93 -24 -98 -7 -124 10 -14 31 -31 47 -37 16 -5 29 -13 29 -16 0 -4 -12
-45 -25 -91 -47 -159 -52 -154 235 -231 123 -33 239 -60 255 -60 51 0 65 19
94 126 l27 99 40 -3 c62 -5 80 16 111 131 l26 97 61 -6 c53 -5 63 -4 79 14 10
11 39 99 66 198 l48 179 84 2 c216 6 386 99 500 275 l39 62 58 -3 c86 -3 241
-37 323 -71 151 -61 275 -169 343 -299 48 -92 68 -178 69 -291 0 -268 -139
-501 -374 -625 -72 -38 -99 -43 -99 -21 0 23 -49 75 -91 96 -36 19 -61 20
-426 20 -436 0 -426 1 -488 -74 -27 -34 -30 -46 -34 -122 l-3 -84 -685 -2
-685 -3 -24 -28 c-23 -27 -24 -35 -24 -157 0 -122 1 -130 24 -157 l24 -28 686
-3 686 -2 0 -55 0 -55 -886 -2 -886 -3 -19 -24 c-17 -21 -19 -41 -19 -191 0
-207 2 -212 104 -218 36 -2 66 -7 66 -11 0 -3 16 -159 35 -345 19 -187 35
-343 35 -348 0 -5 11 -20 25 -33 l24 -25 1656 0 c1110 0 1663 3 1675 10 11 6
24 19 30 30 9 17 80 640 80 701 0 16 8 19 59 19 44 0 65 5 85 21 l26 20 0 179
0 179 -26 20 c-26 21 -36 21 -521 21 -385 0 -494 3 -491 12 3 7 32 18 66 25
332 67 649 296 825 598 165 283 211 661 121 998 -30 111 -106 274 -171 366
-172 242 -471 431 -812 512 -99 24 -274 48 -351 49 -53 1 -56 2 -88 45 -39 53
-117 117 -184 151 -36 18 -48 29 -44 42 30 105 76 282 76 294 0 38 -40 66
-125 89 -47 12 -85 26 -85 31 0 10 21 98 24 98 0 0 33 -9 71 -20 87 -25 88
-25 120 3 20 17 33 50 60 152 48 180 46 213 -17 234 -69 22 -893 241 -909 241
-9 0 -26 -8 -38 -17z m694 -1248 c130 -34 231 -118 293 -244 36 -73 37 -78 37
-185 0 -107 -1 -114 -36 -187 -110 -229 -376 -321 -601 -208 -168 85 -268 279
-238 459 44 261 296 429 545 365z"/>
<path d="M2485 3647 c-112 -54 -166 -171 -131 -289 63 -214 354 -242 452 -42
22 46 26 64 22 123 -7 133 -93 220 -225 228 -57 3 -76 0 -118 -20z"/>
</g>
</svg>
