<?xml version="1.0" standalone="no"?>
<!DOCTYPE svg PUBLIC "-//W3C//DTD SVG 20010904//EN"
 "http://www.w3.org/TR/2001/REC-SVG-20010904/DTD/svg10.dtd">
<svg version="1.0" xmlns="http://www.w3.org/2000/svg"
 width="512.000000pt" height="512.000000pt" viewBox="0 0 512.000000 512.000000"
 preserveAspectRatio="xMidYMid meet">

<g transform="translate(0.000000,512.000000) scale(0.100000,-0.100000)"
fill="#000000" stroke="none">
<path d="M914 4933 c8 -220 20 -357 46 -504 101 -574 370 -1075 836 -1557 l99
-102 200 180 c110 100 209 190 219 200 19 19 19 20 -65 107 -438 458 -629 815
-715 1338 -9 50 -18 188 -21 308 l-6 217 -300 0 -300 0 7 -187z"/>
<path d="M3610 4962 c0 -382 -73 -704 -230 -1017 -183 -364 -376 -583 -1065
-1205 -292 -264 -555 -521 -670 -655 -373 -434 -595 -885 -685 -1394 -26 -147
-38 -284 -46 -503 l-7 -188 302 0 301 0 0 158 c0 382 73 704 230 1017 183 364
376 583 1065 1205 292 264 555 521 670 655 373 434 595 885 685 1394 26 147
38 284 46 504 l7 187 -302 0 -301 0 0 -158z"/>
<path d="M1825 4743 c4 -43 12 -109 19 -148 l11 -70 705 0 705 0 11 70 c7 39
15 105 19 148 l7 77 -742 0 -742 0 7 -77z"/>
<path d="M2056 4003 c20 -38 62 -105 93 -150 l56 -83 355 0 355 0 56 83 c31
45 73 112 93 150 l38 67 -542 0 -542 0 38 -67z"/>
<path d="M3025 2170 c-110 -100 -209 -190 -219 -200 -19 -19 -19 -20 65 -107
438 -458 629 -815 715 -1338 9 -49 18 -188 21 -307 l6 -218 300 0 300 0 -7
188 c-8 219 -20 356 -46 503 -101 574 -370 1075 -836 1557 l-99 102 -200 -180z"/>
<path d="M2149 1267 c-31 -45 -73 -112 -93 -149 l-38 -68 542 0 542 0 -38 68
c-20 37 -62 104 -93 149 l-56 83 -355 0 -355 0 -56 -83z"/>
<path d="M1855 588 c-7 -23 -24 -141 -31 -215 l-7 -73 743 0 742 0 -7 78 c-4
42 -12 109 -19 147 l-11 70 -703 3 c-557 2 -703 0 -707 -10z"/>
</g>
</svg>
