<?xml version="1.0" standalone="no"?>
<!DOCTYPE svg PUBLIC "-//W3C//DTD SVG 20010904//EN"
 "http://www.w3.org/TR/2001/REC-SVG-20010904/DTD/svg10.dtd">
<svg version="1.0" xmlns="http://www.w3.org/2000/svg"
 width="632.000000pt" height="747.000000pt" viewBox="0 0 632.000000 747.000000"
 preserveAspectRatio="xMidYMid meet">

<g transform="translate(0.000000,747.000000) scale(0.100000,-0.100000)"
fill="#000000" stroke="none">
<path d="M1394 6518 c-12 -5 -27 -21 -33 -34 -8 -18 -11 -379 -11 -1279 l0
-1255 1770 0 1770 0 0 985 0 985 -265 0 -265 0 -39 26 c-68 44 -71 60 -71 338
l0 246 -1417 -1 c-955 0 -1425 -4 -1439 -11z m3206 -1063 l0 -115 -1475 0
-1475 0 0 115 0 115 1475 0 1475 0 0 -115z m0 -460 l0 -115 -1475 0 -1475 0 0
115 0 115 1475 0 1475 0 0 -115z m0 -410 l0 -115 -1475 0 -1475 0 0 115 0 115
1475 0 1475 0 0 -115z m0 -410 l0 -115 -1475 0 -1475 0 0 115 0 115 1475 0
1475 0 0 -115z"/>
<path d="M4300 6290 c0 -339 -19 -322 350 -318 l255 3 -270 246 c-149 136
-285 259 -302 274 l-33 27 0 -232z"/>
<path d="M1350 2425 c0 -956 3 -1341 11 -1358 6 -14 22 -30 36 -36 34 -16
3412 -16 3446 0 14 6 30 22 36 36 8 17 11 402 11 1358 l0 1335 -145 0 -145 0
0 -75 0 -75 -1475 0 -1475 0 0 75 0 75 -150 0 -150 0 0 -1335z m3250 860 l0
-115 -1475 0 -1475 0 0 115 0 115 1475 0 1475 0 0 -115z m0 -410 l0 -115
-1475 0 -1475 0 0 115 0 115 1475 0 1475 0 0 -115z m0 -440 l0 -115 -1475 0
-1475 0 0 115 0 115 1475 0 1475 0 0 -115z m0 -400 l0 -115 -1475 0 -1475 0 0
115 0 115 1475 0 1475 0 0 -115z m0 -430 l0 -115 -1475 0 -1475 0 0 115 0 115
1475 0 1475 0 0 -115z"/>
</g>
</svg>
