<?xml version="1.0" standalone="no"?>
<!DOCTYPE svg PUBLIC "-//W3C//DTD SVG 20010904//EN"
 "http://www.w3.org/TR/2001/REC-SVG-20010904/DTD/svg10.dtd">
<svg version="1.0" xmlns="http://www.w3.org/2000/svg"
 width="512.000000pt" height="512.000000pt" viewBox="0 0 512.000000 512.000000"
 preserveAspectRatio="xMidYMid meet">

<g transform="translate(0.000000,512.000000) scale(0.100000,-0.100000)"
fill="#000000" stroke="none">
<path d="M785 4788 c-184 -35 -342 -199 -375 -388 -8 -46 -10 -586 -8 -1880
l3 -1815 22 -59 c57 -148 155 -246 299 -297 43 -16 93 -23 187 -26 l127 -6 0
2242 0 2241 -102 -1 c-57 -1 -125 -6 -153 -11z"/>
<path d="M1360 2560 l0 -2240 1248 2 1247 3 59 23 c151 57 251 160 302 312 18
53 19 127 19 1900 0 1773 -1 1847 -19 1900 -51 152 -151 255 -302 312 l-59 23
-1247 3 -1248 2 0 -2240z m1584 1504 c192 -49 350 -211 401 -409 39 -153 3
-337 -93 -464 -22 -29 -23 -35 -9 -42 41 -23 132 -106 177 -162 59 -72 133
-216 155 -302 9 -33 19 -93 22 -132 l6 -73 -161 0 -160 0 -7 52 c-26 190 -145
338 -319 398 -282 97 -578 -82 -627 -378 l-12 -72 -160 0 -160 0 6 73 c16 200
120 402 273 532 35 30 71 58 80 63 15 9 14 13 -8 43 -164 218 -140 527 56 723
115 115 230 164 390 165 50 1 114 -6 150 -15z m736 -1904 l0 -160 -920 0 -920
0 0 160 0 160 920 0 920 0 0 -160z m0 -480 l0 -160 -920 0 -920 0 0 160 0 160
920 0 920 0 0 -160z m0 -480 l0 -160 -920 0 -920 0 0 160 0 160 920 0 920 0 0
-160z"/>
<path d="M2745 3751 c-133 -33 -209 -164 -171 -296 32 -107 114 -169 226 -169
138 0 234 96 234 234 0 110 -62 194 -166 225 -55 16 -76 17 -123 6z"/>
<path d="M4400 3840 l0 -320 160 0 160 0 0 253 c0 242 -1 255 -22 297 -34 67
-86 90 -205 90 l-93 0 0 -320z"/>
<path d="M4400 2880 l0 -320 93 0 c119 0 171 23 205 90 21 42 22 55 22 297 l0
253 -160 0 -160 0 0 -320z"/>
</g>
</svg>
