<?xml version="1.0" standalone="no"?>
<!DOCTYPE svg PUBLIC "-//W3C//DTD SVG 20010904//EN"
 "http://www.w3.org/TR/2001/REC-SVG-20010904/DTD/svg10.dtd">
<svg version="1.0" xmlns="http://www.w3.org/2000/svg"
 width="512.000000pt" height="512.000000pt" viewBox="0 0 512.000000 512.000000"
 preserveAspectRatio="xMidYMid meet">

<g transform="translate(0.000000,512.000000) scale(0.100000,-0.100000)"
fill="#000000" stroke="none">
<path d="M95 5106 c-41 -18 -83 -69 -90 -109 -3 -18 -4 -1126 -3 -2464 l3
-2432 21 -27 c11 -15 33 -37 48 -48 27 -21 38 -21 732 -24 l704 -2 0 2560 0
2560 -692 0 c-554 -1 -699 -3 -723 -14z m884 -914 c55 -27 76 -64 76 -132 0
-68 -21 -105 -76 -132 -29 -15 -63 -18 -219 -18 -203 0 -233 7 -273 62 -30 40
-34 124 -8 166 42 66 64 72 276 72 161 0 195 -3 224 -18z m0 -600 c55 -27 76
-64 76 -132 0 -68 -21 -105 -76 -132 -29 -15 -63 -18 -219 -18 -203 0 -233 7
-273 62 -30 40 -34 124 -8 166 42 66 64 72 276 72 161 0 195 -3 224 -18z m0
-600 c55 -27 76 -64 76 -132 0 -68 -21 -105 -76 -132 -29 -15 -63 -18 -219
-18 -203 0 -233 7 -273 62 -30 40 -34 124 -8 166 42 66 64 72 276 72 161 0
195 -3 224 -18z m-115 -1499 c69 -25 133 -85 167 -158 119 -250 -146 -515
-396 -396 -143 67 -210 226 -158 377 21 62 109 152 173 176 60 22 153 22 214
1z"/>
<path d="M1810 2560 l0 -2560 750 0 750 0 0 2560 0 2560 -750 0 -750 0 0
-2560z m969 1632 c55 -27 76 -64 76 -132 0 -68 -21 -105 -76 -132 -29 -15 -63
-18 -219 -18 -203 0 -233 7 -273 62 -30 40 -34 124 -8 166 42 66 64 72 276 72
161 0 195 -3 224 -18z m0 -600 c55 -27 76 -64 76 -132 0 -68 -21 -105 -76
-132 -29 -15 -63 -18 -219 -18 -203 0 -233 7 -273 62 -30 40 -34 124 -8 166
42 66 64 72 276 72 161 0 195 -3 224 -18z m0 -600 c55 -27 76 -64 76 -132 0
-68 -21 -105 -76 -132 -29 -15 -63 -18 -219 -18 -203 0 -233 7 -273 62 -30 40
-34 124 -8 166 42 66 64 72 276 72 161 0 195 -3 224 -18z m-115 -1499 c69 -25
133 -85 167 -158 119 -250 -146 -515 -396 -396 -143 67 -210 226 -158 377 21
62 109 152 173 176 60 22 153 22 214 1z"/>
<path d="M3610 2560 l0 -2560 704 2 c694 3 705 3 732 24 15 11 37 33 48 48
l21 27 0 2459 0 2459 -21 27 c-11 15 -33 37 -48 48 -27 21 -38 21 -732 24
l-704 2 0 -2560z m979 1632 c55 -27 76 -64 76 -132 0 -68 -21 -105 -76 -132
-29 -15 -63 -18 -219 -18 -203 0 -233 7 -273 62 -30 40 -34 124 -8 166 42 66
64 72 276 72 161 0 195 -3 224 -18z m0 -600 c55 -27 76 -64 76 -132 0 -68 -21
-105 -76 -132 -29 -15 -63 -18 -219 -18 -203 0 -233 7 -273 62 -30 40 -34 124
-8 166 42 66 64 72 276 72 161 0 195 -3 224 -18z m0 -600 c55 -27 76 -64 76
-132 0 -68 -21 -105 -76 -132 -29 -15 -63 -18 -219 -18 -203 0 -233 7 -273 62
-30 40 -34 124 -8 166 42 66 64 72 276 72 161 0 195 -3 224 -18z m-115 -1499
c69 -25 133 -85 167 -158 119 -250 -146 -515 -396 -396 -143 67 -210 226 -158
377 21 62 109 152 173 176 60 22 153 22 214 1z"/>
</g>
</svg>
