<?xml version="1.0" standalone="no"?>
<!DOCTYPE svg PUBLIC "-//W3C//DTD SVG 20010904//EN"
 "http://www.w3.org/TR/2001/REC-SVG-20010904/DTD/svg10.dtd">
<svg version="1.0" xmlns="http://www.w3.org/2000/svg"
 width="512.000000pt" height="512.000000pt" viewBox="0 0 512.000000 512.000000"
 preserveAspectRatio="xMidYMid meet">

<g transform="translate(0.000000,512.000000) scale(0.100000,-0.100000)"
fill="#000000" stroke="none">
<path d="M2395 4840 c-794 -64 -1498 -533 -1859 -1238 -115 -225 -187 -448
-228 -707 -29 -183 -29 -487 0 -670 119 -748 572 -1374 1234 -1706 333 -167
654 -243 1028 -243 217 0 352 16 546 63 817 201 1461 839 1669 1655 52 206 69
343 69 566 0 223 -17 360 -69 566 -101 397 -307 758 -600 1049 -117 117 -283
250 -416 332 -97 61 -291 156 -403 197 -289 109 -665 161 -971 136z m-637
-780 c30 -28 28 -64 -4 -89 -25 -20 -39 -21 -244 -21 -199 0 -220 -2 -241 -19
-24 -19 -24 -23 -29 -245 -3 -130 -9 -229 -15 -234 -23 -22 -52 -22 -78 -1
l-27 20 0 225 c0 248 4 266 68 327 53 50 87 56 328 57 208 0 221 -1 242 -20z
m2159 -9 c24 -14 55 -42 70 -64 l28 -40 3 -226 c2 -124 1 -235 -2 -246 -13
-49 -100 -51 -111 -3 -2 13 -6 117 -7 231 -3 206 -3 209 -27 228 -21 17 -42
19 -241 19 -205 0 -219 1 -244 21 -34 27 -34 62 1 89 26 21 35 21 258 18 222
-3 231 -4 272 -27z m-1195 -226 c146 -31 265 -95 380 -205 82 -79 94 -106 61
-142 -26 -29 -65 -23 -104 18 -89 93 -231 176 -349 205 -75 18 -221 16 -299
-5 -259 -70 -465 -302 -543 -611 -15 -61 -21 -127 -25 -272 l-6 -193 72 0 71
0 0 97 c0 86 3 99 22 120 28 30 53 29 83 -2 23 -22 25 -32 25 -120 l0 -95 69
0 69 0 4 168 c3 156 5 171 30 224 68 146 215 230 347 198 67 -16 101 -43 101
-80 0 -38 -38 -65 -78 -55 -70 18 -119 17 -161 -4 -87 -45 -121 -136 -121
-323 l0 -128 70 0 70 0 0 177 c0 150 2 179 17 195 20 22 61 23 85 1 16 -14 18
-34 18 -195 l0 -178 70 0 70 0 0 62 c0 71 17 98 61 98 45 0 59 -23 59 -96 l0
-64 70 0 70 0 0 163 c0 185 -10 241 -66 355 -48 98 -130 182 -221 225 -63 30
-75 32 -173 32 -93 0 -112 -3 -160 -26 -101 -48 -196 -145 -241 -245 -35 -78
-83 -95 -122 -42 -19 26 -19 28 -3 70 29 73 96 166 165 229 173 159 403 192
605 87 95 -50 212 -173 263 -278 64 -130 74 -180 80 -387 l5 -183 71 0 70 0
-6 193 c-6 213 -16 270 -73 414 -39 99 -40 134 -3 154 37 19 67 3 95 -54 72
-141 101 -281 110 -527 l7 -180 275 0 c242 0 278 -2 294 -17 22 -20 23 -61 1
-85 -15 -17 -37 -18 -293 -18 l-277 0 -6 -178 c-7 -191 -23 -297 -61 -409 -28
-83 -84 -197 -128 -262 -46 -68 -154 -177 -224 -227 -314 -225 -735 -183
-1001 99 -56 59 -63 79 -37 115 26 38 59 28 135 -40 125 -113 232 -167 377
-189 196 -30 393 42 552 202 181 182 260 406 260 735 l0 154 -70 0 -70 0 0
-100 c0 -87 -3 -103 -20 -120 -26 -26 -62 -25 -86 1 -15 17 -20 40 -22 120
l-4 99 -68 0 -68 0 -4 -167 c-3 -157 -5 -172 -30 -225 -69 -148 -214 -230
-348 -198 -92 22 -126 74 -79 121 16 16 28 19 52 14 85 -18 124 -17 165 4 91
47 122 126 122 316 l0 135 -70 0 -70 0 0 -179 c0 -150 -3 -182 -16 -195 -20
-21 -63 -20 -86 1 -16 14 -18 34 -18 195 l0 178 -70 0 -70 0 0 -62 c0 -71 -17
-98 -61 -98 -45 0 -59 23 -59 96 l0 64 -70 0 -70 0 0 -158 c0 -244 42 -372
162 -494 212 -218 537 -155 693 133 49 90 79 107 121 68 20 -19 24 -30 20 -53
-20 -99 -176 -283 -292 -344 -155 -81 -333 -81 -488 0 -74 39 -198 160 -244
239 -72 124 -102 259 -102 465 l0 144 -71 0 -72 0 6 -192 c5 -211 22 -303 78
-427 36 -80 37 -115 4 -137 -45 -29 -72 -12 -110 69 -73 160 -95 276 -95 515
l0 172 -282 0 c-248 0 -284 2 -300 17 -22 20 -23 61 -1 85 15 17 38 18 300 18
l283 0 0 174 c0 258 30 394 124 572 129 242 334 407 571 459 80 18 224 18 307
0z m-1497 -2157 c6 -5 12 -104 15 -234 5 -222 5 -226 29 -245 21 -17 42 -19
241 -19 205 0 219 -1 244 -21 31 -25 34 -61 6 -89 -19 -19 -33 -20 -248 -20
-224 0 -229 0 -279 25 -32 16 -61 41 -79 67 l-29 41 -3 237 -3 238 27 21 c27
21 56 21 79 -1z m2760 10 c14 -6 28 -21 31 -33 3 -11 4 -122 2 -246 l-3 -226
-27 -40 c-17 -26 -45 -50 -79 -67 -52 -26 -55 -26 -279 -26 -214 0 -227 1
-248 20 -30 28 -28 64 4 89 25 20 39 21 244 21 199 0 220 2 241 19 24 19 24
23 29 244 3 124 7 227 10 230 5 4 43 26 47 27 1 0 14 -5 28 -12z"/>
</g>
</svg>
